<svg xmlns="http://www.w3.org/2000/svg" viewBox="0 0 64 64" role="img" aria-label="NeuroView favicon">
  <defs>
    <linearGradient id="bg" x1="0" y1="0" x2="1" y2="1">
      <stop offset="0%" stop-color="#1d4ed8"/>
      <stop offset="100%" stop-color="#7c3aed"/>
    </linearGradient>
    <linearGradient id="node" x1="0" y1="0" x2="1" y2="1">
      <stop offset="0%" stop-color="#22d3ee"/>
      <stop offset="100%" stop-color="#a7f3d0"/>
    </linearGradient>
  </defs>

  <rect x="2" y="2" width="60" height="60" rx="14" fill="url(#bg)"/>

  <g fill="none" stroke="#ffffff" stroke-width="3" stroke-linecap="round" stroke-linejoin="round" opacity="0.95">
    <path d="M18 23c0-5 4-9 9-9h2v36h-2c-5 0-9-4-9-9z"/>
    <path d="M46 23c0-5-4-9-9-9h-2v36h2c5 0 9-4 9-9z"/>
    <path d="M23 28h18"/>
    <path d="M23 36h18"/>
  </g>

  <g fill="url(#node)">
    <circle cx="23" cy="28" r="2.6"/>
    <circle cx="41" cy="28" r="2.6"/>
    <circle cx="23" cy="36" r="2.6"/>
    <circle cx="41" cy="36" r="2.6"/>
    <circle cx="32" cy="18" r="2.6"/>
    <circle cx="32" cy="46" r="2.6"/>
  </g>
</svg>